<?xml version="1.0" encoding="UTF-8" standalone="no"?>
<!-- Created with Inkscape (http://www.inkscape.org/) -->

<svg
   xmlns:dc="http://purl.org/dc/elements/1.1/"
   xmlns:cc="http://creativecommons.org/ns#"
   xmlns:rdf="http://www.w3.org/1999/02/22-rdf-syntax-ns#"
   xmlns:svg="http://www.w3.org/2000/svg"
   xmlns="http://www.w3.org/2000/svg"
   xmlns:xlink="http://www.w3.org/1999/xlink"
   xmlns:sodipodi="http://sodipodi.sourceforge.net/DTD/sodipodi-0.dtd"
   xmlns:inkscape="http://www.inkscape.org/namespaces/inkscape"
   width="354.33069"
   height="354.33069"
   id="svg3159"
   version="1.1"
   inkscape:version="0.48.2 r9819"
   sodipodi:docname="MIAO_logo.svg">
  <defs
     id="defs3161" />
  <sodipodi:namedview
     id="base"
     pagecolor="#ffffff"
     bordercolor="#666666"
     borderopacity="1.0"
     inkscape:pageopacity="0.0"
     inkscape:pageshadow="2"
     inkscape:zoom="1.0736395"
     inkscape:cx="161.73486"
     inkscape:cy="176.17625"
     inkscape:document-units="px"
     inkscape:current-layer="layer1"
     showgrid="true"
     units="mm"
     showguides="true"
     inkscape:guide-bbox="true"
     guidetolerance="10"
     objecttolerance="10"
     inkscape:window-width="1276"
     inkscape:window-height="756"
     inkscape:window-x="4"
     inkscape:window-y="0"
     inkscape:window-maximized="1"
     gridtolerance="10000">
    <sodipodi:guide
       orientation="1,0"
       position="177.16535,177.16535"
       id="guide3167" />
    <inkscape:grid
       type="xygrid"
       id="grid3169"
       empspacing="5"
       visible="true"
       enabled="true"
       snapvisiblegridlinesonly="true"
       dotted="true"
       units="mm"
       spacingx="1mm"
       spacingy="1mm" />
    <sodipodi:guide
       orientation="0,1"
       position="194.88189,177.16535"
       id="guide3171" />
  </sodipodi:namedview>
  <metadata
     id="metadata3164">
    <rdf:RDF>
      <cc:Work
         rdf:about="">
        <dc:format>image/svg+xml</dc:format>
        <dc:type
           rdf:resource="http://purl.org/dc/dcmitype/StillImage" />
        <dc:title />
      </cc:Work>
    </rdf:RDF>
  </metadata>
  <g
     inkscape:label="Layer 1"
     inkscape:groupmode="layer"
     id="layer1"
     transform="translate(0,-698.03148)">
    <path
       sodipodi:type="arc"
       style="fill:none;fill-opacity:1;fill-rule:nonzero;stroke:#323232;stroke-opacity:1;stroke-width:1.77165354;stroke-miterlimit:4;stroke-dasharray:none"
       id="path3173"
       sodipodi:cx="177.16536"
       sodipodi:cy="177.16533"
       sodipodi:rx="177.16536"
       sodipodi:ry="177.16536"
       d="m 354.33072,177.16533 c 0,97.84573 -79.31963,177.16536 -177.16536,177.16536 C 79.319633,354.33069 0,275.01106 0,177.16533 0,79.319603 79.319633,-3.0517578e-5 177.16536,-3.0517578e-5 275.01109,-3.0517578e-5 354.33072,79.319603 354.33072,177.16533 z"
       transform="translate(0,698.03148)" />
    <path
       sodipodi:type="arc"
       style="fill:none;stroke:#323232;stroke-width:1.77165353;stroke-miterlimit:4;stroke-opacity:1;stroke-dasharray:none"
       id="path3943"
       sodipodi:cx="177.16536"
       sodipodi:cy="177.16533"
       sodipodi:rx="141.73228"
       sodipodi:ry="141.73228"
       d="m 318.89764,177.16533 c 0,78.27658 -63.4557,141.73228 -141.73228,141.73228 -78.27658,0 -141.732285,-63.4557 -141.732285,-141.73228 0,-78.27658 63.455705,-141.732286 141.732285,-141.732286 78.27658,0 141.73228,63.455706 141.73228,141.732286 z"
       transform="translate(0,698.03148)" />
    <path
       style="fill:none;stroke:#00b0dc;stroke-width:1.77165353;stroke-miterlimit:4;stroke-opacity:0.17333332"
       d="M 19.173382,853.69198 C 31.050166,766.43541 111.4136,705.32801 198.67016,717.2048 285.92672,729.08158 347.03411,809.44504 335.15733,896.70162 323.28055,983.95818 242.91709,1045.0656 155.66052,1033.1888 68.403961,1021.312 7.2965985,940.94855 19.173382,853.69198 z"
       id="path3945"
       inkscape:connector-curvature="0" />
    <text
       xml:space="preserve"
       style="font-size:20px;font-style:normal;font-variant:normal;font-weight:normal;font-stretch:normal;line-height:285.99998951%;letter-spacing:0px;word-spacing:0px;fill:#000000;fill-opacity:1;stroke:none;font-family:Copperplate;-inkscape-font-specification:Copperplate"
       id="text3948"
       sodipodi:linespacing="285.99999%"><textPath
         xlink:href="#path3945"
         id="textPath3952"
         style="font-size:32px;line-height:0%;letter-spacing:4.95px"><tspan
   id="tspan3950"
   style="font-size:32px;line-height:0%;letter-spacing:4.95px"
   dy="7">Maestri Impeccabili nell'Arte dell'Ospitalità</tspan></textPath></text>
    <path
       sodipodi:type="arc"
       style="fill:none;stroke:#00b0dc;stroke-width:1.77165353;stroke-miterlimit:4;stroke-opacity:0.17333332;stroke-dasharray:none"
       id="path3975"
       sodipodi:cx="177.16536"
       sodipodi:cy="177.16533"
       sodipodi:rx="124.01575"
       sodipodi:ry="124.01575"
       d="m 301.18111,177.16533 c 0,68.492 -55.52374,124.01575 -124.01575,124.01575 -68.49201,0 -124.015748,-55.52375 -124.015748,-124.01575 0,-68.49201 55.523738,-124.015748 124.015748,-124.015748 68.49201,0 124.01575,55.523738 124.01575,124.015748 z"
       transform="translate(0,698.03148)" />
    <path
       transform="translate(0,698.03148)"
       style="fill:none;stroke:#000000;stroke-width:1.772;stroke-miterlimit:4;stroke-opacity:0.06222222000000000;stroke-dasharray:none"
       d="m 283.46457,177.16533 c 0,29.35371 -11.89795,55.92852 -31.13432,75.16489 -19.23637,19.23637 -45.81118,31.13432 -75.16489,31.13432 -29.35372,0 -55.92852,-11.89795 -75.16489,-31.13432 -19.236375,-19.23637 -31.13432,-45.81118 -31.13432,-75.16489 0,-29.35372 11.897945,-55.92852 31.13432,-75.16489 19.23637,-19.236376 45.81117,-31.134321 75.16489,-31.134321 29.35371,0 55.92852,11.897945 75.16489,31.134321 19.23637,19.23637 31.13432,45.81118 31.13432,75.16489 z"
       id="path4017"
       inkscape:connector-curvature="0"
       sodipodi:nodetypes="sssssssss" />
    <flowRoot
       xml:space="preserve"
       id="flowRoot3055"
       style="font-size:144px;font-style:normal;font-variant:normal;font-weight:normal;font-stretch:normal;line-height:125%;letter-spacing:0px;word-spacing:0px;fill:#ffffff;fill-opacity:1;stroke:none;font-family:DecoTech;-inkscape-font-specification:DecoTech"
       transform="translate(0,698.03148)"><flowRegion
         id="flowRegion3057"><rect
           id="rect3059"
           width="57.957439"
           height="111.30463"
           x="84.960335"
           y="130.40422"
           style="font-style:normal;font-variant:normal;font-weight:normal;font-stretch:normal;font-family:DecoTech;-inkscape-font-specification:DecoTech;font-size:144px;fill:#ffffff" /></flowRegion><flowPara
         id="flowPara3061">m</flowPara></flowRoot>    <flowRoot
       xml:space="preserve"
       id="flowRoot3063"
       style="fill:black;stroke:none;stroke-opacity:1;stroke-width:1px;stroke-linejoin:miter;stroke-linecap:butt;fill-opacity:1;font-family:Sans;font-style:normal;font-weight:normal;font-size:40px;line-height:125%;letter-spacing:0px;word-spacing:0px"><flowRegion
         id="flowRegion3065"><rect
           id="rect3067"
           width="534.78906"
           height="385.28525"
           x="-203.50964"
           y="77.715645" /></flowRegion><flowPara
         id="flowPara3069"></flowPara></flowRoot>    <g
       transform="translate(490.65728,721.48193)"
       style="font-size:300px;font-style:normal;font-variant:normal;font-weight:normal;font-stretch:normal;line-height:125%;letter-spacing:0px;word-spacing:0px;fill:#000000;fill-opacity:1;stroke:none;font-family:DecoTech TL;-inkscape-font-specification:DecoTech TL"
       id="flowRoot3075" />
    <flowRoot
       xml:space="preserve"
       id="flowRoot3083"
       style="fill:black;stroke:none;stroke-opacity:1;stroke-width:1px;stroke-linejoin:miter;stroke-linecap:butt;fill-opacity:1;font-family:Sans;font-style:normal;font-weight:normal;font-size:40px;line-height:125%;letter-spacing:0px;word-spacing:0px"><flowRegion
         id="flowRegion3085"><rect
           id="rect3087"
           width="153.68286"
           height="171.37968"
           x="-372.56451"
           y="58.141895" /></flowRegion><flowPara
         id="flowPara3089"></flowPara></flowRoot>    <g
       style="font-size:300px;font-style:normal;font-variant:normal;font-weight:normal;font-stretch:normal;line-height:125%;letter-spacing:0px;word-spacing:0px;fill:#000000;fill-opacity:1;stroke:none;font-family:DecoTech TL;-inkscape-font-specification:DecoTech TL"
       id="text3091"
       transform="translate(7.8598414,-7.8685072)" />
    <g
       id="g3134">
      <text
         sodipodi:linespacing="125%"
         id="text3071"
         y="949.29681"
         x="51.149605"
         style="font-size:200px;font-style:normal;font-variant:normal;font-weight:normal;font-stretch:normal;line-height:125%;letter-spacing:0px;word-spacing:0px;fill:#000000;fill-opacity:1;stroke:none;font-family:DecoTech TL;-inkscape-font-specification:DecoTech TL"
         xml:space="preserve"><tspan
           y="949.29681"
           x="51.149605"
           id="tspan3073"
           sodipodi:role="line">m</tspan><tspan
           id="tspan3101"
           y="1199.2969"
           x="51.149605"
           sodipodi:role="line" /></text>
      <path
         sodipodi:nodetypes="ccccc"
         inkscape:connector-curvature="0"
         id="path3130"
         style="font-size:300px;font-style:normal;font-variant:normal;font-weight:normal;font-stretch:normal;line-height:125%;letter-spacing:0px;word-spacing:0px;fill:#000000;fill-opacity:1;stroke:none;font-family:DecoTech TL;-inkscape-font-specification:DecoTech TL"
         d="m -354.23681,258.61567 21.25985,12.02835 0,-233.858269 -21.25985,10.629925 0,211.199994"
         transform="translate(490.65728,721.48193)" />
      <path
         sodipodi:nodetypes="cccccccccccccccccscccccccccccc"
         inkscape:connector-curvature="0"
         id="path3127"
         d="m 159.69135,938.57059 0,61.42387 23.1,0 -0.14646,-110.92522 28.34646,0 0,110.92522 23.10945,-10.62993 -0.009,-180.71847 c -1e-4,-4.59009 -0.4001,-9.28014 -1.2,-14.07017 -0.6001,-4.78965 -3.00009,-10.07843 -7.2,-15.86636 -2.20009,-2.79387 -4.70009,-4.98921 -7.5,-6.58604 -2.60008,-1.79597 -5.30008,-3.09322 -8.1,-3.89175 -2.60007,-0.99766 -5.10007,-1.59639 -7.5,-1.79619 -2.20006,-0.19935 -4.00006,-0.29914 -5.4,-0.29936 -4.20006,2.2e-4 -8.50005,0.69874 -12.9,2.09555 -4.40004,1.39726 -8.40004,3.79217 -12,7.18477 -3.60003,3.19344 -6.60003,7.58412 -9,13.17207 -2.40002,5.38877 -3.60002,12.07458 -3.6,20.05748 l 0,108.37023 m 22.95354,-52.69772 0.14646,-55.67251 c -5e-5,-1.79601 -5e-5,-3.79178 0,-5.98731 0.19995,-2.19516 0.69995,-4.29071 1.5,-6.28667 0.99995,-1.99558 2.39995,-3.69198 4.2,-5.08921 1.99995,-1.39684 4.79994,-2.09536 8.4,-2.09556 3.59994,2e-4 6.29993,0.69872 8.1,2.09556 1.99993,1.39723 3.39993,3.09363 4.2,5.08921 0.99993,1.79638 1.49993,3.89194 1.5,6.28667 0.19993,2.19553 0.29992,4.1913 0.3,5.98731 l 0,55.67251"
         style="font-size:300px;font-style:normal;font-variant:normal;font-weight:normal;font-stretch:normal;line-height:125%;letter-spacing:0px;word-spacing:0px;fill:#000000;fill-opacity:1;stroke:none;font-family:DecoTech TL;-inkscape-font-specification:DecoTech TL"
         transform="translate(7.8598414,-7.86851)" />
      <text
         sodipodi:linespacing="125%"
         id="text3095"
         y="945.5968"
         x="242.03151"
         style="font-size:200px;font-style:normal;font-variant:normal;font-weight:normal;font-stretch:normal;line-height:125%;letter-spacing:0px;word-spacing:0px;fill:#000000;fill-opacity:1;stroke:none;font-family:DecoTech TL;-inkscape-font-specification:DecoTech TL"
         xml:space="preserve"><tspan
           y="945.5968"
           x="242.03151"
           id="tspan3097"
           sodipodi:role="line">O</tspan><tspan
           id="tspan3099"
           y="1195.5968"
           x="242.03151"
           sodipodi:role="line" /></text>
    </g>
  </g>
</svg>
